PathFileType	4	(X/Y/Z)	C:/Users/opensim2020/Desktop/walking_exp_matlab/subject02_walking10_straight_04.trc	
DataRate	CameraRate	NumFrames	NumMarkers	Units	OrigDataRate	OrigDataStartFrame	OrigNumFrames	
100.00	100.00	5	43	mm	100.00	3084	260	
Frame#	Time	LFHD			RFHD			LBHD			RBHD			C7			T10			CLAV			STRN			RBAK			LSHO			LUPA			LELB			LFRM			LWRA			LWRB			LFIN			RSHO			RUPA			RELB			RFRM			RWRA			RWRB			RFIN			LASI			RASI			LPSI			RPSI			LTHI			LKNE			LTIB			LANK			LHEE			LTOE			RTHI			RKNE			RTIB			RANK			RHEE			RTOE			*39			*40			*41			*42			
		X1	Y1	Z1	X2	Y2	Z2	X3	Y3	Z3	X4	Y4	Z4	X5	Y5	Z5	X6	Y6	Z6	X7	Y7	Z7	X8	Y8	Z8	X9	Y9	Z9	X10	Y10	Z10	X11	Y11	Z11	X12	Y12	Z12	X13	Y13	Z13	X14	Y14	Z14	X15	Y15	Z15	X16	Y16	Z16	X17	Y17	Z17	X18	Y18	Z18	X19	Y19	Z19	X20	Y20	Z20	X21	Y21	Z21	X22	Y22	Z22	X23	Y23	Z23	X24	Y24	Z24	X25	Y25	Z25	X26	Y26	Z26	X27	Y27	Z27	X28	Y28	Z28	X29	Y29	Z29	X30	Y30	Z30	X31	Y31	Z31	X32	Y32	Z32	X33	Y33	Z33	X34	Y34	Z34	X35	Y35	Z35	X36	Y36	Z36	X37	Y37	Z37	X38	Y38	Z38	X39	Y39	Z39	X40	Y40	Z40	X41	Y41	Z41	X42	Y42	Z42	X43	Y43	Z43	

33	0.320	-1080.82703	529.38135	1763.19043	-1221.25232	510.35358	1736.03845	-1074.55237	634.20258	1654.66162	-1216.26099	626.33502	1622.33972	-1132.54382	656.24951	1522.71924	-1141.61731	702.92450	1249.58838	-1113.67224	515.65552	1460.41870	-1115.28027	460.46457	1286.81360	-1195.88074	706.10187	1349.31641	-947.30859	586.32935	1507.15466	-865.02789	585.97620	1306.17358	-855.52759	583.69531	1164.93738	-840.55542	567.94250	1034.82788	-869.44946	506.01147	910.20856	-834.99719	551.30078	912.92059	-830.67462	530.71503	849.14575	-1314.11829	567.09808	1485.15015	-1395.50354	592.85846	1292.34302	-1411.77136	577.05237	1147.08289	-1430.05444	545.65979	1031.27502	-1409.19568	495.97333	905.16705	-1443.98242	540.91296	901.77222	-1444.15808	503.32047	838.86401	-991.60651	491.12366	979.93390	-1241.68201	453.40997	983.08856	-1098.44666	686.57916	1030.43250	-1214.34497	674.62805	1037.71375	-930.18146	572.09796	670.85370	-936.05981	596.57452	486.71979	-942.56897	746.26270	376.38455	-970.81500	882.13074	200.27586	-1030.50403	914.52185	194.58713	-934.12909	802.35266	70.03656	-1318.64612	489.02313	680.70001	-1272.24634	474.53363	471.38611	-1277.17334	506.72141	284.27106	-1235.87207	522.87579	93.33582	-1181.29419	559.80212	40.83821	-1240.53979	369.06680	39.52976	-1184.57764	635.91705	1790.42615	-3360.35059	2845.12793	1034.17017						 
34	0.330	-1082.13953	521.68756	1764.44214	-1222.63940	502.09714	1737.43140	-1076.34583	626.38727	1655.86157	-1218.09351	618.01862	1623.69482	-1134.96228	648.07568	1524.15796	-1144.97559	695.02899	1251.07434	-1115.00989	507.74915	1461.54919	-1116.55920	452.63382	1287.93811	-1199.53467	697.77167	1351.37634	-949.12360	579.75775	1507.90759	-867.19843	581.84991	1306.70593	-857.81500	580.37048	1165.60083	-841.86035	567.16248	1035.78638	-869.47827	507.07080	909.83563	-835.85944	552.79871	913.48651	-831.31488	533.68085	848.97003	-1316.12793	557.35480	1486.93909	-1398.63904	582.08716	1294.08337	-1414.77112	565.85693	1148.77942	-1432.81641	533.53510	1033.16418	-1411.57410	483.03989	907.51422	-1446.64136	527.76556	903.68884	-1446.73474	489.49744	841.24890	-992.33740	484.55753	981.41638	-1243.14771	445.57443	983.18048	-1101.85388	679.30823	1031.56189	-1217.39050	666.90424	1039.04236	-930.91174	560.85437	672.82452	-936.67212	580.79376	488.74667	-945.31635	729.77222	378.01682	-973.05859	864.40204	200.77820	-1033.15613	896.30420	193.72685	-931.88031	783.60986	73.20165	-1320.04651	484.00919	680.58282	-1273.22974	473.09201	471.14969	-1277.57874	507.03372	284.35303	-1235.69617	522.69843	93.20687	-1181.25684	559.80347	40.90648	-1240.58679	369.02023	39.48506	-1186.12183	627.90863	1791.71362	-3360.27661	2845.17480	1034.25183						 
35	0.340	-1083.29028	514.06628	1766.02344	-1223.85388	493.90805	1738.74817	-1078.10510	618.69928	1656.94971	-1219.79773	609.73560	1624.87830	-1137.35889	639.95819	1525.54163	-1148.28308	687.18378	1252.56250	-1116.52844	499.82281	1462.61707	-1117.84204	444.86038	1288.88464	-1202.19763	689.19305	1353.00940	-950.93353	573.23053	1508.57922	-869.22754	577.64398	1307.22913	-859.76575	577.72565	1166.44812	-843.52826	565.98755	1036.11157	-869.73621	508.11365	909.19409	-836.58112	553.90356	913.89148	-831.96924	536.30957	848.93903	-1317.63867	547.47699	1488.23059	-1400.92053	571.34479	1295.52856	-1417.72913	554.49756	1150.38025	-1435.52332	521.21771	1035.18542	-1413.95703	470.04468	909.89801	-1448.97803	514.44287	905.49078	-1449.24841	475.48010	843.73468	-993.04840	478.03714	982.88538	-1244.79626	438.03604	983.40344	-1105.08826	672.14691	1032.69958	-1220.27515	659.37421	1040.26660	-931.83093	548.77277	674.95593	-937.36206	565.38306	490.78937	-947.77692	713.36346	379.13510	-975.05481	846.28613	200.48271	-1035.51917	877.43610	191.53645	-930.09595	763.55713	75.53374	-1321.12354	479.18399	680.44751	-1274.28076	471.64005	470.95618	-1278.15125	507.12802	284.42014	-1235.64587	522.64056	93.16606	-1181.20801	559.81543	40.97966	-1240.66064	368.87344	39.44687	-1187.98352	619.92603	1792.83826	-3360.28320	2845.20239	1034.17480						 
36	0.350	-1084.36328	506.69006	1767.05493	-1224.91016	485.74255	1739.99023	-1079.79614	610.99420	1657.91650	-1221.39917	601.45764	1626.01611	-1139.62732	631.93097	1526.77637	-1151.58032	679.53094	1254.03040	-1117.82727	491.89743	1463.58569	-1119.14502	437.11017	1289.80762	-1206.67957	681.80890	1355.05566	-952.73022	566.75769	1509.14880	-871.12946	573.71259	1307.80701	-861.56958	575.02686	1167.15100	-844.72864	565.47473	1036.99072	-870.04724	509.07147	909.09692	-837.43884	554.83215	914.48340	-833.04382	538.29382	849.02869	-1319.31006	537.72870	1489.77917	-1403.57764	560.45233	1297.19739	-1420.57617	543.06122	1152.14355	-1438.33630	508.94226	1037.08521	-1416.20117	456.95261	912.27661	-1451.51294	501.05219	907.47186	-1451.71460	461.28418	846.18445	-994.09473	471.61182	984.30811	-1246.34412	430.71826	983.73602	-1108.06555	665.14941	1033.94458	-1222.93005	651.98712	1041.31580	-932.37622	537.59998	676.91718	-937.96490	550.40826	492.81009	-949.92841	697.37469	379.86356	-977.05298	827.31854	198.93323	-1037.68152	858.02368	188.36670	-928.98083	742.42151	76.98805	-1322.52222	475.71664	679.93811	-1275.14673	470.09686	470.81906	-1278.67896	506.81802	284.42874	-1235.53479	522.62097	93.21156	-1181.17224	559.81671	41.07695	-1240.62573	368.88812	39.35173	-1189.64624	611.98468	1793.95386	-3357.43457	2845.91504	1034.19556						 
37	0.360	-1085.42188	499.19748	1768.02820	-1225.93909	477.60931	1741.14978	-1081.50720	603.29602	1658.90173	-1222.98083	593.20636	1627.02478	-1141.85095	623.86511	1527.95435	-1154.72668	671.88562	1255.40369	-1119.12585	484.00735	1464.43579	-1120.35339	429.45901	1290.61560	-1209.87280	673.49799	1356.75757	-954.56366	560.25214	1509.70935	-872.96472	569.80884	1308.40369	-863.27777	572.61688	1167.90515	-846.12762	564.54584	1037.57520	-870.52063	509.68173	908.88818	-838.27869	555.97144	914.98340	-833.67609	540.08484	849.35773	-1320.86560	528.09912	1491.33459	-1406.21106	549.39435	1298.95056	-1423.33447	531.45197	1153.91528	-1440.52136	496.27164	1039.13135	-1418.35791	443.84781	914.75757	-1454.36963	487.64471	909.68909	-1454.19006	447.15936	848.77930	-995.09924	464.93732	985.82404	-1248.12219	423.59677	984.28528	-1110.84937	658.34406	1035.19104	-1225.34595	644.70776	1042.20447	-933.07678	526.31281	679.09241	-938.61230	535.86914	494.62659	-951.98932	681.23615	379.70981	-978.80957	807.56946	196.21503	-1039.61560	837.84161	184.16383	-928.20593	720.16443	77.55697	-1323.07117	472.02710	680.14563	-1275.93579	468.56689	470.56003	-1279.09900	506.05933	284.43631	-1235.55579	522.51129	93.27176	-1180.92920	559.56427	41.06412	-1240.67615	368.73624	39.36648	-1191.10242	604.01514	1794.97314	-3360.45654	2845.32690	1034.16589						 
